<?xml version="1.0" encoding="utf-8"?>
<!-- Generator: Adobe Illustrator 23.0.1, SVG Export Plug-In . SVG Version: 6.00 Build 0)  -->
<svg version="1.1" id="Layer_1" xmlns="http://www.w3.org/2000/svg" xmlns:xlink="http://www.w3.org/1999/xlink" x="0px" y="0px"
	 viewBox="0 0 222 42.5" style="enable-background:new 0 0 222 42.5;" xml:space="preserve">
<style type="text/css">
	.st0{fill:#DE1D3F;}
	.st1{fill:#20438D;}
	.st2{fill:#20438E;}
	.st3{fill:#293A92;}
	.st4{fill:#2559A4;}
	.st5{fill:#203578;}
	.st6{fill:#D1D2D4;}
	.st7{fill:#284C9C;}
	.st8{fill:#1F4A85;}
	.st9{fill:#FEFEFE;}
	.st10{fill:#FEFDFD;}
	.st11{fill:#FDFDFE;}
</style>
<g>
	<path class="st0" d="M180,8.2c11.6,0,23.2,0,34.8,0c3.2,0,5.5,1.6,6.6,4.4c0.2,0.6,0.3,1.2,0.3,1.9c0,5.5,0,11,0,16.6
		c0,3.4-2.7,6.2-6.1,6.4c-0.3,0-0.6,0-1,0c-23,0-46.1,0-69.1,0c-3.6,0-6.2-2-6.9-5.3c-0.1-0.5-0.1-1.1-0.1-1.7c0-5.1,0-10.2,0-15.4
		c0-4.3,2.7-7,7.1-7C156.9,8.2,168.4,8.2,180,8.2z"/>
	<path class="st1" d="M94.3,22.7c0,3.4,0,6.8,0,10.2c0,0.8-0.2,1.2-1.1,1.1c-0.8-0.1-1.6-0.1-2.4,0c-0.8,0.1-1.1-0.2-1.1-1.1
		c0.1-2.4,0-4.8,0-7.2c0-0.9-0.3-1.1-1.1-1.1c-2.3,0.1-4.6,0.1-6.9,0c-0.9,0-1.1,0.3-1.1,1.1c0.1,2.4,0,4.8,0,7.2
		c0,0.8-0.2,1.2-1,1.1c-0.9-0.1-1.8,0-2.6,0c-0.6,0-0.8-0.2-0.8-0.8c0-7,0-13.9,0-20.9c0-0.5,0.1-0.8,0.7-0.8
		c3.8-0.3,3.8-0.3,3.8,3.4c0,1.8,0,3.5,0,5.3c0,0.8,0.2,1,1,1c2.4,0,4.7,0,7.1,0c0.8,0,1.1-0.2,1.1-1.1c-0.1-2.5,0-5,0-7.6
		c0-0.8,0.2-1.2,1.1-1.1c1.1,0.1,2.5-0.5,3.2,0.2c0.7,0.7,0.2,2.1,0.2,3.2C94.3,17.5,94.3,20.1,94.3,22.7z"/>
	<path class="st1" d="M98,22.7c0-1.3-0.1-2.6,0-3.8c0.6-4.3,4.1-7.5,8.4-7.7c4.9-0.3,8.7,2.3,9.8,6.7c0.8,3.2,0.8,6.5,0,9.6
		c-1.1,4.6-5.1,7.1-10.1,6.7c-4.4-0.4-7.7-3.8-8.1-8.3C97.8,24.8,97.9,23.8,98,22.7C97.9,22.7,97.9,22.7,98,22.7z"/>
	<path class="st2" d="M73.7,11.4c-0.8,1.1-1.4,2-2,2.9c-1.6,2.3-3.2,4.6-4.9,6.8c-0.5,0.6-0.5,1,0,1.7c2.3,3.3,4.5,6.6,6.7,9.9
		c0.2,0.3,0.6,0.6,0.6,1.3c-1.6,0-3.3,0-4.9,0c-0.6,0-0.7-0.5-0.9-0.8c-1.7-2.6-3.3-5.2-5-7.8c-0.4-0.6-2.1-1.1-2.7-0.7
		c-0.4,0.2-0.2,0.7-0.2,1c0,2.4-0.1,4.8,0,7.2c0,1-0.3,1.3-1.2,1.2c-0.8-0.1-1.5-0.1-2.3,0c-0.9,0.1-1-0.3-1-1.1
		c0-6.8,0-13.6,0-20.4c0-0.9,0.3-1.1,1.1-1c1.1,0.1,2.5-0.5,3.2,0.3c0.6,0.7,0.2,2.1,0.2,3.1c0,1.6,0,3.1,0,4.7
		c0,0.4-0.3,1.1,0.5,1.1c0.7,0.1,1.4,0.2,1.9-0.6c1.3-2.2,2.9-4.2,4.1-6.5c0.9-1.7,2.1-2.4,4-2.1C71.7,11.5,72.6,11.4,73.7,11.4z"/>
	<path class="st0" d="M16,17c0,1.7,0,3.4,0,5c0,1.5-0.8,2.3-2.3,2.3c-3.4,0-6.8,0-10.2,0c-1.6,0-2.4-0.9-2.4-2.5c0-3.3,0-6.6,0-10
		c0-1.4,0.9-2.4,2.3-2.4c3.5,0,6.9,0,10.4,0c1.4,0,2.2,0.8,2.2,2.3C16,13.5,16,15.3,16,17z"/>
	<path class="st1" d="M1.1,34.3c0-1.7,0-3.4,0-5c0-1.4,0.8-2.4,2.2-2.4c3.5,0,7,0,10.5,0c1.4,0,2.1,0.8,2.1,2.2c0,3.4,0,6.9,0,10.3
		c0,1.5-0.8,2.2-2.2,2.2c-3.4,0-6.9,0-10.3,0c-1.5,0-2.3-0.9-2.4-2.4C1.1,37.6,1.1,35.9,1.1,34.3z"/>
	<path class="st0" d="M33.2,34.3c0,1.7,0,3.4,0,5c0,1.5-0.8,2.3-2.3,2.3c-3.4,0-6.8,0-10.2,0c-1.5,0-2.3-0.8-2.3-2.3
		c0-3.4,0-6.8,0-10.2c0-1.5,0.8-2.3,2.3-2.3c3.4,0,6.8,0,10.2,0c1.5,0,2.3,0.8,2.3,2.3C33.2,30.8,33.2,32.6,33.2,34.3z"/>
	<path class="st2" d="M129.3,14.9c-3.3,0-6.4,0-9.4,0c-0.8,0-1.2-0.1-1.2-1.1c0.1-2.4,0-2.4,2.4-2.4c4,0,8,0,12,0
		c0.6,0,1.4-0.4,1.6,0.3c0.2,0.7,0.3,1.7-0.2,2.4c-0.1,0.2-0.3,0.4-0.4,0.6c-3.1,4.9-6.2,9.8-9.4,14.6c-0.2,0.3-0.3,0.5-0.6,1
		c0.7,0,1.2,0,1.7,0c2.8,0,5.5,0,8.3,0c0.7,0,0.9,0.2,0.9,0.9c0.1,2.7,0.1,2.7-2.6,2.7c-4,0-8.1,0-12.1,0c-0.6,0-1.4,0.4-1.6-0.3
		c-0.2-0.7-0.3-1.7,0.1-2.4c0.2-0.5,0.5-0.9,0.8-1.3c3-4.7,6-9.3,9-14C128.9,15.6,129,15.4,129.3,14.9z"/>
	<path class="st3" d="M20.5,13.3c-0.5,3.1-1,6.3-1.5,9.6c-0.6-0.5-0.6-1.2-0.6-1.8c0-5.5,0-10.9,0-16.4c0-2.1,1.3-3.4,3.5-3.4
		c5.3,0,10.6,0,15.9,0c1.5,0,2.7,0.4,3.6,1.7c0.4,0.5,0.6,1,0.6,1.6c0,4.3,0,8.6,0,12.9c0,0.2,0,0.4-0.1,0.6c-0.3,0.8-0.7,0.5-1,0.1
		c-0.6-0.7-1.1-1.4-1.6-2.2c-0.1-0.2-0.2-0.5-0.1-0.7c1.1-2.9,0.5-5.6-1.3-8c-4.6-6.1-13.5-5-16.6,2C20.7,10.7,20.7,12,20.5,13.3z"
		/>
	<path class="st4" d="M20.5,13.3C20.3,7.8,23.4,4,28.9,3.2c6.1-0.9,11.2,4.4,11,9.5c0,0.6,0,1.1,0,1.7c0,0.5-0.1,1-0.7,1.1
		c-1-0.6-1.4-1.7-2.1-2.6c-0.2-0.2-0.2-0.6-0.5-0.8c-0.6-2-1.6-3.7-3.3-4.9c-4.9-3.3-11.5-0.6-12.5,5.3C20.7,12.7,20.6,13,20.5,13.3
		z"/>
	<path class="st5" d="M39.4,15.9c0.8,0.8,1.2,1.9,2.2,2.6c1.6,3.1-0.3,6.3-3.7,6.4c-5.1,0.1-10.1,0-15.2,0c-0.5,0-1.2,0.2-1.5-0.6
		c2.5-0.7,5.1-1.4,7.6-2.2c1.1-0.3,2.3,0,3.4-0.3c2.7-0.7,4.7-2.3,6-4.8C38.5,16.6,38.6,15.9,39.4,15.9z"/>
	<path class="st6" d="M21.2,24.3c0.3,0.4,0.7,0.2,1.1,0.2c5.1,0,10.3,0,15.4,0c2.7,0,3.9-1.1,3.9-3.8c0-0.7-0.1-1.4-0.1-2.2
		c0-4.8,0-9.6,0-14.3c0-0.4-0.2-0.8-0.3-1.3c1,0.7,1.5,1.6,1.5,2.8c0,5.4,0,10.8,0,16.2c0,2.3-1.3,3.6-3.5,3.6c-6.3,0-12.7,0-19,0
		c-0.3,0-0.6,0-1.2,0C19.8,24.8,20.5,24.6,21.2,24.3z"/>
	<path class="st7" d="M32.8,13.7c0,2.4-1.9,4.3-4.2,4.3c-2.4,0-4.3-1.9-4.2-4.3c0-2.3,1.9-4.2,4.2-4.2C30.9,9.5,32.8,11.4,32.8,13.7
		z"/>
	<path class="st8" d="M39.4,15.9c-0.4,0.1-0.5,0.5-0.6,0.8c-1.4,3-3.7,4.8-7,5.5c-1,0.2-2-0.1-2.9-0.1c0.6-0.2,1.3-0.5,1.9-0.7
		c4.1-1.4,6.2-4.6,5.8-8.9c0-0.2,0-0.3,0-0.5c0.9,0.3,1,1.2,1.6,1.8c0.4,0.4,0.7,1,1.1,1.6C39.2,15.6,39.3,15.8,39.4,15.9z"/>
	<path class="st9" d="M159.7,18.8c0,4.5,0,9.1,0,13.6c0,1.2-0.3,1.6-1.4,1.4c-1-0.1-2.3,0.4-2.9-0.2c-0.6-0.6-0.2-1.9-0.2-2.9
		c0-6.1,0-12.2,0-18.2c0-0.9,0.2-1,1.1-1.2c2.5-0.4,3.9,0.6,5.1,2.8c2.2,4.2,4.8,8.2,7.2,12.3c0.4-0.2,0.2-0.6,0.2-0.9
		c0-4.4,0-8.8,0-13.2c0-0.8,0.2-1.2,1.1-1.1c0.9,0.1,1.8,0,2.6,0c0.6,0,0.8,0.2,0.8,0.8c0,6.9,0,13.8,0,20.8c0,0.7-0.2,1-0.9,0.9
		c0,0-0.1,0-0.1,0c-3.4,0.1-3.4,0.1-5.2-2.9c-2.4-4.1-4.8-8.1-7.2-12.2C159.9,18.8,159.8,18.8,159.7,18.8z"/>
	<path class="st9" d="M213.6,22.8c0,1.6,0.1,3.1-0.3,4.6c-1.2,4.6-5.2,7.2-10.2,6.7c-4.4-0.4-7.8-3.9-8.1-8.5
		c-0.1-2.2-0.2-4.5,0.1-6.7c0.8-5.1,4.7-8.1,9.9-7.8c4.8,0.3,8.4,4,8.6,8.9C213.7,20.9,213.6,21.8,213.6,22.8z"/>
	<path class="st10" d="M177.5,22.7c0-3.4,0-6.7,0-10.1c0-0.9,0.2-1.2,1.1-1.2c4.4,0.1,8.9,0,13.3,0c0.8,0,1.1,0.2,1.1,1.1
		c0,2.4,0,2.4-2.4,2.4c-2.6,0-5.1,0-7.7,0c-0.7,0-0.9,0.2-0.9,0.9c0,1.5,0.1,3,0,4.4c0,0.8,0.3,0.9,1,0.9c2.5,0,4.9,0,7.4,0
		c0.8,0,1,0.2,1,1c0,2.5,0,2.5-2.4,2.5c-2,0-4.1,0-6.1,0c-0.7,0-0.9,0.2-0.9,0.9c0,2.5,0,5,0,7.4c0,0.9-0.2,1.1-1.1,1.1
		c-0.8-0.1-1.7-0.1-2.5,0c-0.7,0.1-0.9-0.2-0.9-1C177.5,29.5,177.5,26.1,177.5,22.7z"/>
	<path class="st9" d="M150.7,22.7c0,3.4,0,6.7,0,10.1c0,0.9-0.3,1.2-1.2,1.1c-0.8-0.1-1.5-0.1-2.3,0c-0.8,0.1-1.1-0.2-1.1-1.1
		c0-4,0-8,0-12c0-2.8,0-5.7,0-8.5c0-0.7,0.2-1,1-0.9c1.1,0.1,2.5-0.4,3.2,0.2c0.8,0.7,0.2,2.1,0.2,3.2
		C150.7,17.5,150.7,20.1,150.7,22.7z"/>
	<path class="st9" d="M112,22.7c0,1.3,0.1,2.6-0.2,3.9c-0.6,2.5-2.3,4.1-4.6,4.1c-2.3,0-4.1-1.4-4.6-3.9c-0.5-2.8-0.5-5.6,0-8.3
		c0.5-2.5,2.2-3.8,4.5-3.8c2.3,0,4,1.4,4.7,3.9C112.1,19.9,112,21.3,112,22.7z"/>
	<path class="st11" d="M31.4,13.8c0,1.5-1.3,2.8-2.8,2.8c-1.5,0-2.8-1.3-2.8-2.8c0-1.5,1.3-2.8,2.8-2.8
		C30.1,10.9,31.4,12.2,31.4,13.8z"/>
	<path class="st0" d="M199.5,22.7c0.1-1.4-0.1-2.7,0.2-4.1c0.6-2.6,2.2-3.9,4.6-4c2.4,0,4.1,1.3,4.6,3.8c0.6,2.8,0.6,5.7,0,8.4
		c-0.5,2.5-2.3,3.8-4.5,3.8c-2.3,0-3.9-1.3-4.6-3.8C199.3,25.6,199.5,24.1,199.5,22.7z"/>
</g>
</svg>
